<?xml version="1.0" encoding="UTF-8" standalone="no"?>
<svg width="613px" height="613px" viewBox="0 0 613 613" version="1.1" xmlns="http://www.w3.org/2000/svg" xmlns:xlink="http://www.w3.org/1999/xlink" xmlns:sketch="http://www.bohemiancoding.com/sketch/ns">
    <!-- Generator: Sketch 3.2.2 (9983) - http://www.bohemiancoding.com/sketch -->
    <title>logo</title>
    <desc>Created with Sketch.</desc>
    <defs></defs>
    <g id="Page-1" stroke="none" stroke-width="1" fill="none" fill-rule="evenodd" sketch:type="MSPage">
        <g id="logo" sketch:type="MSLayerGroup">
            <path d="M306.2,0.5 C475.199,0.5 612.2,137.501 612.2,306.5 C612.2,475.499 475.199,612.5 306.2,612.5 C137.201,612.5 0.2,475.499 0.2,306.5 C0.2,137.501 137.201,0.5 306.2,0.5" id="Oval" opacity="0.5" fill="#231F1F" sketch:type="MSShapeGroup"></path>
            <g id="Letters" transform="translate(145.000000, 237.000000)" fill="#FFFFFF" sketch:type="MSShapeGroup">
                <path d="M0.392,2.602 L113.295,2.602 L113.295,43.965 L80.796,43.965 L80.796,27.293 L51.04,27.293 L51.04,53.039 L86.705,53.039 L86.705,77.941 L51.04,77.941 L51.04,108.541 L81.007,108.541 L81.007,91.026 L113.506,91.026 L113.506,133.443 L0.392,133.443 L0.392,108.541 L12.21,108.541 L12.21,27.293 L0.392,27.293 L0.392,2.602" id="E"></path>
                <path d="M147.483,56.838 C140.097,51.984 133.766,42.066 133.766,32.147 C133.766,16.319 150.015,0.281 173.862,0.281 C202.985,0.281 214.592,17.796 214.592,32.147 C214.592,46.919 203.407,55.361 193.277,59.581 L210.793,77.097 C215.225,68.656 218.39,59.792 220.501,52.195 L260.597,52.195 L260.597,75.831 L242.237,75.831 C239.283,84.694 235.695,91.659 231.474,97.99 L243.081,109.385 L253.844,109.385 L253.844,133.655 L226.199,133.655 L213.959,121.626 C204.04,130.911 187.157,135.976 169.641,135.976 C138.619,135.976 120.048,118.249 120.048,95.246 C120.048,82.795 125.957,67.812 147.483,56.838 L147.483,56.838 L147.483,56.838 Z M170.275,108.119 C176.183,108.119 185.891,106.009 192.433,100.311 L168.586,76.886 L167.742,76.886 C162.677,80.052 155.08,87.016 155.08,93.98 C155.08,102.844 162.888,108.119 170.275,108.119 L170.275,108.119 L170.275,108.119 Z M173.651,21.173 C167.953,21.173 164.366,26.66 164.366,31.514 C164.366,39.322 171.752,43.332 175.55,45.02 C176.606,45.653 184.625,39.533 184.625,32.569 C184.625,27.293 181.881,21.173 173.651,21.173 L173.651,21.173 L173.651,21.173 Z" id="&amp;"></path>
                <path d="M251.312,144.839 C253.844,145.895 256.377,146.528 259.753,146.528 C269.039,146.528 275.37,139.564 275.37,119.515 L275.37,27.082 L259.331,27.082 L259.331,2.602 L329.606,2.602 L329.606,27.082 L313.989,27.082 L313.989,119.515 C313.989,152.648 299.85,171.641 261.23,171.641 C257.643,171.641 254.266,170.797 251.523,169.53 L251.312,144.839" id="J"></path>
            </g>
        </g>
    </g>
</svg>